<svg id="Gradient" height="512" viewBox="0 0 512 512" width="512" xmlns="http://www.w3.org/2000/svg" xmlns:xlink="http://www.w3.org/1999/xlink"><linearGradient id="linear-gradient" gradientUnits="userSpaceOnUse" x1="256" x2="256" y1="504" y2="40"><stop offset="0" stop-color="#12c2e9"/><stop offset=".5" stop-color="#c471ed"/><stop offset="1" stop-color="#f64f59"/></linearGradient><path d="m488 56h-24v-8a8 8 0 0 0 -8-8h-168a39.964 39.964 0 0 0 -32 16.028 39.964 39.964 0 0 0 -32-16.028h-168a8 8 0 0 0 -8 8v8h-24a8 8 0 0 0 -8 8v288a8 8 0 0 0 8 8h72v40a8.016 8.016 0 0 0 .785 3.457l23 48c.063.132.145.25.215.377v44.166a8 8 0 0 0 8 8h160a8 8 0 0 0 8-8v-136h192a8 8 0 0 0 8-8v-288a8 8 0 0 0 -8-8zm-222.624 288a24.039 24.039 0 0 1 22.624-16h160v16zm-105.376 0v-16h64a24.039 24.039 0 0 1 22.624 16zm128-288h160v256h-160a39.788 39.788 0 0 0 -24 8.022v-240.022a24.028 24.028 0 0 1 24-24zm-224 0h160a24.028 24.028 0 0 1 24 24v240.019a39.792 39.792 0 0 0 -24-8.019h-64v-24h64a8 8 0 0 0 0-16h-64a39.759 39.759 0 0 0 -3.35-16h67.35a8 8 0 0 0 0-16h-80.026a39.8 39.8 0 0 0 -23.974-8h-8a16 16 0 0 0 -13.835 8h-10.165a8 8 0 0 0 0 16h8v16h-8a8 8 0 0 0 0 16h8v24h-32zm-32 16h16v272h-16zm32 272v-16h32v16zm72 144v-32h144v32zm144-48h-147.962l-20.038-41.817v-150.183h8a24.028 24.028 0 0 1 24 24v80a8 8 0 0 0 6.868 7.92 71.291 71.291 0 0 1 24.806 9.809c16.141 10.377 24.326 25.945 24.326 46.271a8 8 0 0 0 16 0c0-28.634-13.339-45.93-26.387-56h90.387zm200-96h-16v-272h16zm-400-256a8 8 0 0 1 8-8h80a8 8 0 0 1 0 16h-80a8 8 0 0 1 -8-8zm112 0a8 8 0 0 1 8-8h24a8 8 0 0 1 0 16h-24a8 8 0 0 1 -8-8zm40 64a8 8 0 0 1 -8 8h-80a8 8 0 0 1 0-16h80a8 8 0 0 1 8 8zm-152 0a8 8 0 0 1 8-8h24a8 8 0 0 1 0 16h-24a8 8 0 0 1 -8-8zm0-32a8 8 0 0 1 8-8h136a8 8 0 0 1 0 16h-136a8 8 0 0 1 -8-8zm0 96a8 8 0 0 1 8-8h80a8 8 0 0 1 0 16h-80a8 8 0 0 1 -8-8zm152 0a8 8 0 0 1 -8 8h-24a8 8 0 0 1 0-16h24a8 8 0 0 1 8 8zm-152-32a8 8 0 0 1 8-8h136a8 8 0 0 1 0 16h-136a8 8 0 0 1 -8-8zm256-96a8 8 0 0 1 8-8h80a8 8 0 0 1 0 16h-80a8 8 0 0 1 -8-8zm-56 0a8 8 0 0 1 8-8h24a8 8 0 0 1 0 16h-24a8 8 0 0 1 -8-8zm0 64a8 8 0 0 1 8-8h80a8 8 0 0 1 0 16h-80a8 8 0 0 1 -8-8zm152 0a8 8 0 0 1 -8 8h-24a8 8 0 0 1 0-16h24a8 8 0 0 1 8 8zm-152-32a8 8 0 0 1 8-8h136a8 8 0 0 1 0 16h-136a8 8 0 0 1 -8-8zm152 96a8 8 0 0 1 -8 8h-80a8 8 0 0 1 0-16h80a8 8 0 0 1 8 8zm-152 0a8 8 0 0 1 8-8h24a8 8 0 0 1 0 16h-24a8 8 0 0 1 -8-8zm0 64a8 8 0 0 1 8-8h80a8 8 0 0 1 0 16h-80a8 8 0 0 1 -8-8zm152 0a8 8 0 0 1 -8 8h-24a8 8 0 0 1 0-16h24a8 8 0 0 1 8 8zm-152-32a8 8 0 0 1 8-8h136a8 8 0 0 1 0 16h-136a8 8 0 0 1 -8-8zm0-64a8 8 0 0 1 8-8h136a8 8 0 0 1 0 16h-136a8 8 0 0 1 -8-8z" fill="url(#linear-gradient)"/></svg>