<?xml version="1.0" encoding="iso-8859-1"?>
<!-- Generator: Adobe Illustrator 19.0.0, SVG Export Plug-In . SVG Version: 6.00 Build 0)  -->
<svg version="1.1" id="Capa_1" xmlns="http://www.w3.org/2000/svg" xmlns:xlink="http://www.w3.org/1999/xlink" x="0px" y="0px"
	 viewBox="0 0 511.984 511.984" style="enable-background:new 0 0 511.984 511.984;" xml:space="preserve">
<polygon style="fill:#FFFFFF;" points="316.786,387.988 256.39,363.988 195.994,387.988 188.635,390.863 227.993,491.984 
	234.789,507.984 256.39,507.984 277.991,507.984 284.788,491.984 324.145,390.863 "/>
<path style="fill:#5C9EFF;" d="M411.987,159.987c0-86.161-69.834-155.995-155.995-155.995c-86.162,0-155.995,69.834-155.995,155.995
	c0,0,7.999,123.996-39.999,155.995c0,0,39.999,31.999,103.997,31.999h183.994c63.998,0,103.996-31.999,103.996-31.999
	C403.987,283.983,411.987,159.987,411.987,159.987z"/>
<polygon style="fill:#FFFFFF;" points="189.033,390.863 255.992,363.988 256.39,355.989 180.392,316.951 180.392,368.597 "/>
<path style="fill:#94C1FF;" d="M36.396,459.986c0,31.998,0,47.998,0,47.998h162.331l-10.335-16l-16-23.998l8-24l-47.999-55.998
	l-15.999,5.438c-12,4.078-23.437,7.359-31.999,10.562C52.396,415.987,36.396,427.986,36.396,459.986z"/>
<path style="fill:#D7E9FF;" d="M52.396,475.985c0-31.999,15.999-43.999,47.998-55.998c8.562-3.203,20-6.484,31.999-10.562
	l14.227-4.836l-14.227-16.601l-15.999,5.438c-12,4.078-23.437,7.359-31.999,10.562c-31.999,11.999-47.999,23.998-47.999,55.998
	c0,31.998,0,47.998,0,47.998h16C52.396,500.156,52.396,489.61,52.396,475.985z"/>
<polygon style="fill:#48CFAD;" points="189.033,390.863 172.392,347.989 160.714,359.669 132.393,387.988 180.392,443.986 
	172.392,467.986 198.727,507.984 234.39,507.984 "/>
<polygon style="fill:#D7E9FF;" points="189.033,390.863 172.392,347.989 160.714,359.669 132.393,387.988 180.392,443.986 
	172.392,467.986 198.727,507.984 234.39,507.984 "/>
<polygon style="fill:#FFFFFF;" points="323.348,390.863 256.39,363.988 255.992,355.989 331.989,316.951 331.989,368.597 "/>
<path style="fill:#94C1FF;" d="M115.996,159.987c0-83.462,65.576-151.401,147.995-155.593c-2.672-0.132-5.297-0.402-7.999-0.402
	c-86.162,0-155.995,69.834-155.995,155.995c0,0,7.999,123.996-39.999,155.995l12.077,7.914
	C125.746,286.983,115.996,159.987,115.996,159.987z"/>
<path style="fill:#2287FF;" d="M395.987,159.987c0-83.462-65.576-151.401-147.995-155.593c2.672-0.132,5.297-0.402,8-0.402
	c86.161,0,155.995,69.834,155.995,155.995c0,0-8,123.996,39.998,155.995l-12.077,7.914
	C386.237,286.983,395.987,159.987,395.987,159.987z"/>
<path style="fill:#656D78;" d="M255.992,3.992c48.076,0,91.114,21.761,119.754,55.998c0,0-19.281,29.358-67.756,59.197
	c-43.358,26.722-110.153,53.838-207.51,60.479c0-12-0.483-19.679-0.483-19.679C99.997,73.83,169.838,3.992,255.992,3.992z"/>
<path style="fill:#94C1FF;" d="M255.992,3.992c48.076,0,91.114,21.761,119.754,55.998c0,0-19.281,29.358-67.756,59.197
	c-43.358,26.722-110.153,53.838-207.51,60.479c0-12-0.483-19.679-0.483-19.679C99.997,73.83,169.838,3.992,255.992,3.992z"/>
<path style="fill:#D7E9FF;" d="M115.996,159.987c0-84.036,66.49-152.354,149.706-155.679c-3.211-0.195-6.445-0.316-9.71-0.316
	c-86.154,0-155.995,69.838-155.995,155.995c0,0,0.483,7.68,0.483,19.679c5.438-0.371,10.742-0.828,15.984-1.32
	C116.433,167.132,115.996,159.987,115.996,159.987z"/>
<path style="fill:#94C1FF;" d="M411.745,164.225c-54.233-4.238-103.755-45.038-103.755-45.038
	c48.475-29.839,67.756-59.197,67.756-59.197c22.64,27.12,36.241,61.92,36.241,99.997
	C411.987,159.987,411.909,161.507,411.745,164.225z"/>
<path style="fill:#5C9EFF;" d="M375.746,59.99c-28.64-34.237-71.678-55.998-119.754-55.998c-2.125,0-4.188,0.234-6.289,0.316
	c44.139,2.715,83.349,23.769,110.043,55.682c22.64,27.12,36.241,61.92,36.241,99.997c0,0-0.039,0.703-0.109,1.902
	c5.227,1.059,10.508,1.918,15.867,2.336c0.164-2.719,0.242-4.238,0.242-4.238C411.987,121.91,398.386,87.11,375.746,59.99z"/>
<path style="fill:#D7E9FF;" d="M307.99,119.187c0,0,40.296,33.202,87.997,42.812v17.988c0,53.038-29.116,103.754-63.998,136.957
	c-25.28,24.077-53.6,39.038-75.997,39.038c-22.398,0-50.718-14.883-75.998-39.038c-31.358-29.843-58.076-73.837-63.123-120.957
	v-17.656C205.962,170.03,266.952,144.48,307.99,119.187z"/>
<path style="fill:#94C1FF;" d="M379.987,158.042v21.945c0,53.038-29.115,103.754-63.998,136.957
	c-22.366,21.305-47.1,35.421-68.013,38.405c2.734,0.391,5.422,0.633,8.016,0.633c22.397,0,50.717-14.961,75.997-39.038
	c34.882-33.202,63.998-83.919,63.998-136.957v-17.988L379.987,158.042z"/>
<path style="fill:#FFFFFF;" d="M195.994,316.943c-31.359-29.843-58.077-73.837-63.124-120.957v-19.414l-15.999,1.758v17.656
	c5.047,47.12,31.765,91.114,63.123,120.957c25.28,24.155,53.6,39.038,75.998,39.038c2.577,0,5.257-0.242,7.983-0.633
	C243.062,352.364,218.352,338.303,195.994,316.943z"/>
<path style="fill:#94C1FF;" d="M235.953,204.236c0,4.398-3.602,8-7.999,8h-55.999c-4.398,0-7.999-3.601-7.999-8v-16
	c0-4.398,3.601-8,7.999-8h55.999c4.397,0,7.999,3.602,7.999,8v8.238V204.236z"/>
<g>
	<polygon style="fill:#D7E9FF;" points="183.103,212.235 199.673,212.235 208.243,180.236 191.681,180.236 	"/>
	<polygon style="fill:#D7E9FF;" points="203.954,212.235 208.235,212.235 216.813,180.236 212.532,180.236 	"/>
</g>
<path style="fill:#94C1FF;" d="M347.95,204.236c0,4.398-3.602,8-8,8h-55.998c-4.398,0-8-3.601-8-8v-16c0-4.398,3.602-8,8-8h55.998
	c4.398,0,8,3.602,8,8v8.238V204.236z"/>
<g>
	<polygon style="fill:#D7E9FF;" points="295.099,212.235 311.67,212.235 320.239,180.236 303.678,180.236 	"/>
	<polygon style="fill:#D7E9FF;" points="315.951,212.235 320.231,212.235 328.809,180.236 324.528,180.236 	"/>
</g>
<g>
	<path style="fill:#116FFF;" d="M256.234,391.988c-2.211,0-4.039-1.789-4.039-4s1.75-4,3.953-4h0.086c2.202,0,3.999,1.789,3.999,4
		S258.436,391.988,256.234,391.988z"/>
	<path style="fill:#116FFF;" d="M256.234,415.987c-2.211,0-4.039-1.789-4.039-4s1.75-4,3.953-4h0.086c2.202,0,3.999,1.789,3.999,4
		S258.436,415.987,256.234,415.987z"/>
	<path style="fill:#116FFF;" d="M256.234,439.986c-2.211,0-4.039-1.789-4.039-4s1.75-4,3.953-4h0.086c2.202,0,3.999,1.789,3.999,4
		S258.436,439.986,256.234,439.986z"/>
	<path style="fill:#116FFF;" d="M256.234,463.986c-2.211,0-4.039-1.789-4.039-4s1.75-4,3.953-4h0.086c2.202,0,3.999,1.789,3.999,4
		S258.436,463.986,256.234,463.986z"/>
	<path style="fill:#116FFF;" d="M256.234,487.985c-2.211,0-4.039-1.789-4.039-4s1.75-4,3.953-4h0.086c2.202,0,3.999,1.789,3.999,4
		S258.436,487.985,256.234,487.985z"/>
</g>
<path style="fill:#94C1FF;" d="M475.985,459.986c0,31.998,0,47.998,0,47.998H313.654l10.335-16l16-23.998l-8-24l47.998-55.998
	l16,5.438c12,4.078,23.438,7.359,31.999,10.562C459.985,415.987,475.985,427.986,475.985,459.986z"/>
<polygon style="fill:#48CFAD;" points="323.348,390.863 339.989,347.989 351.669,359.669 379.987,387.988 331.989,443.986 
	339.989,467.986 313.654,507.984 277.991,507.984 "/>
<polygon style="fill:#D7E9FF;" points="323.348,390.863 339.989,347.989 351.669,359.669 379.987,387.988 331.989,443.986 
	339.989,467.986 313.654,507.984 277.991,507.984 "/>
<path style="fill:#5C9EFF;" d="M459.985,475.985c0-31.999-16-43.999-47.998-55.998c-8.562-3.203-20-6.484-32-10.562l-14.226-4.836
	l14.226-16.601l16,5.438c12,4.078,23.438,7.359,31.999,10.562c31.999,11.999,47.999,23.998,47.999,55.998
	c0,31.998,0,47.998,0,47.998h-16C459.985,500.156,459.985,489.61,459.985,475.985z"/>
<g>
	<path style="fill:#116FFF;" d="M255.992,359.989c-22.922,0-52.366-15.008-78.756-40.14c-35.577-33.937-59.623-80.08-64.334-123.422
		c-0.242-2.199,1.352-4.172,3.547-4.41c2.055-0.223,4.172,1.348,4.406,3.543c4.508,41.526,27.647,85.821,61.896,118.492
		c24.944,23.758,52.318,37.937,73.24,37.937c20.921,0,48.295-14.179,73.239-37.937c39.296-37.397,62.756-87.513,62.756-134.058
		c0-2.211,1.789-4,4-4s4,1.789,4,4c0,48.694-24.39,100.973-65.24,139.855C308.357,344.981,278.913,359.989,255.992,359.989z"/>
	<path style="fill:#116FFF;" d="M475.985,511.984H35.999c-2.211,0-4-1.789-4-4v-47.998c0-34.272,17.78-47.437,50.592-59.748
		c4.977-1.852,10.898-3.734,17.336-5.781c4.702-1.5,9.694-3.086,14.78-4.812c2.086-0.719,4.359,0.398,5.078,2.5
		c0.711,2.094-0.414,4.359-2.5,5.078c-5.141,1.742-10.18,3.344-14.938,4.859c-6.296,1.999-12.093,3.843-16.952,5.655
		c-30.757,11.531-45.397,22.296-45.397,52.249v43.998h431.987v-43.998c0-29.953-14.641-40.718-45.405-52.249
		c-4.852-1.812-10.647-3.656-16.944-5.655c-4.758-1.516-9.797-3.117-14.938-4.859c-2.086-0.719-3.211-2.984-2.5-5.078
		c0.719-2.094,2.984-3.203,5.078-2.5c5.086,1.727,10.078,3.312,14.781,4.812c6.438,2.047,12.358,3.93,17.327,5.781
		c32.819,12.312,50.601,25.476,50.601,59.748v47.998C479.985,510.195,478.196,511.984,475.985,511.984z"/>
	<path style="fill:#116FFF;" d="M179.994,351.989c-2.211,0-4-1.789-4-4v-31.038c0-2.211,1.789-4,4-4s4,1.789,4,4v31.038
		C183.994,350.2,182.205,351.989,179.994,351.989z"/>
	<path style="fill:#116FFF;" d="M331.989,351.989c-2.211,0-4-1.789-4-4v-31.038c0-2.211,1.789-4,4-4s4,1.789,4,4v31.038
		C335.989,350.2,334.2,351.989,331.989,351.989z"/>
	<path style="fill:#116FFF;" d="M411.987,163.995c-2.211,0-4-1.789-4-4c0-35.554-12.539-70.158-35.312-97.435
		C343.669,27.889,301.138,8,255.992,8c-83.811,0-151.996,68.185-151.996,151.995c0,2.211-1.789,4-3.999,4c-2.211,0-4-1.789-4-4
		C95.997,71.775,167.767,0,255.992,0c47.521,0,92.294,20.933,122.824,57.432c23.968,28.718,37.171,65.139,37.171,102.563
		C415.987,162.206,414.198,163.995,411.987,163.995z"/>
	<path style="fill:#116FFF;" d="M451.985,319.99c-0.766,0-1.539-0.219-2.219-0.672c-36.764-24.515-42.256-97.911-42.256-139.484
		c0-5.82,0.117-10.691,0.195-14.144l0.289-5.902c0.109-2.195,1.711-3.918,4.195-3.789c2.211,0.113,3.906,1.996,3.789,4.203
		l-0.273,5.68c-0.078,3.406-0.195,8.21-0.195,13.953c0,32.182,3.773,109.547,38.693,132.828c1.836,1.227,2.336,3.703,1.109,5.547
		C454.54,319.365,453.274,319.99,451.985,319.99z"/>
	<path style="fill:#116FFF;" d="M363.98,351.348c-2.055,0-3.797-1.578-3.977-3.656c-0.188-2.203,1.445-4.141,3.648-4.328
		c52.741-4.483,85.513-30.241,85.833-30.499c1.734-1.375,4.25-1.094,5.625,0.625c1.383,1.734,1.102,4.25-0.625,5.625
		c-1.406,1.125-35.021,27.53-90.161,32.218C364.215,351.348,364.097,351.348,363.98,351.348z"/>
	<path style="fill:#116FFF;" d="M59.998,319.99c-1.289,0-2.555-0.625-3.328-1.781c-1.227-1.836-0.727-4.32,1.109-5.547
		c30.452-20.304,37.171-82.306,38.46-117.457c0.156-5.602,0.234-10.922,0.234-15.531c0-11.714-0.461-19.355-0.469-19.433
		c-0.133-2.203,1.539-4.102,3.742-4.238c2.452-0.148,4.108,1.547,4.241,3.746c0.023,0.316,0.484,7.941,0.484,19.925
		c0,4.671-0.078,10.07-0.234,15.789c-1.648,44.842-10.28,102.692-42.021,123.855C61.537,319.771,60.763,319.99,59.998,319.99z"/>
	<path style="fill:#116FFF;" d="M148.003,351.348c-0.117,0-0.234,0-0.344-0.016c-55.217-4.688-88.763-31.101-90.161-32.218
		c-1.727-1.383-2-3.898-0.625-5.625c1.383-1.727,3.906-1.984,5.625-0.625c0.32,0.266,33.171,26.031,85.833,30.499
		c2.203,0.188,3.836,2.125,3.648,4.328C151.8,349.77,150.057,351.348,148.003,351.348z"/>
	<path style="fill:#116FFF;" d="M100.465,183.674c-2.077,0-3.835-1.617-3.983-3.726c-0.148-2.207,1.516-4.113,3.718-4.266
		c80.967-5.519,150.168-25.671,205.689-59.893c47.022-28.941,66.326-57.706,66.514-57.991c1.219-1.855,3.711-2.352,5.539-1.141
		c1.844,1.215,2.358,3.691,1.148,5.535c-0.805,1.23-20.328,30.448-69.006,60.408c-56.639,34.909-127.066,55.452-209.338,61.064
		C100.652,183.67,100.558,183.674,100.465,183.674z"/>
	<path style="fill:#116FFF;" d="M411.753,168.233c-0.109,0-0.211-0.004-0.32-0.012c-54.858-4.289-103.927-44.241-105.989-45.94
		c-1.703-1.402-1.945-3.922-0.539-5.629c1.406-1.71,3.938-1.933,5.625-0.547c0.492,0.402,49.225,40.054,101.528,44.14
		c2.203,0.172,3.844,2.098,3.672,4.301C415.565,166.639,413.815,168.233,411.753,168.233z"/>
	<path style="fill:#116FFF;" d="M227.993,215.993h-55.999c-6.617,0-11.999-5.382-11.999-12v-16c0-6.617,5.382-12,11.999-12h55.999
		c6.616,0,11.999,5.382,11.999,12v16C239.992,210.611,234.609,215.993,227.993,215.993z M171.994,183.994c-2.203,0-4,1.793-4,4v16
		c0,2.207,1.797,4,4,4h55.999c2.202,0,3.999-1.793,3.999-4v-16c0-2.207-1.797-4-3.999-4H171.994z"/>
	<path style="fill:#116FFF;" d="M339.989,215.993h-55.998c-6.617,0-12-5.382-12-12v-16c0-6.617,5.383-12,12-12h55.998
		c6.617,0,12,5.382,12,12v16C351.989,210.611,346.606,215.993,339.989,215.993z M283.991,183.994c-2.203,0-4,1.793-4,4v16
		c0,2.207,1.797,4,4,4h55.998c2.203,0,4-1.793,4-4v-16c0-2.207-1.797-4-4-4H283.991z"/>
	<path style="fill:#116FFF;" d="M275.991,200.232h-39.999c-2.211,0-4-1.789-4-4s1.789-4,4-4h39.999c2.211,0,4,1.789,4,4
		S278.202,200.232,275.991,200.232z"/>
	<path style="fill:#116FFF;" d="M198.727,511.984c-1.289,0-2.555-0.625-3.327-1.781l-26.734-39.999
		c-0.688-1.023-0.859-2.312-0.469-3.483l7.289-21.852l-46.529-54.279c-1.359-1.586-1.266-3.953,0.211-5.43l39.998-39.999
		c1.562-1.562,4.094-1.562,5.656,0s1.562,4.094,0,5.656l-37.382,37.382l45.593,53.186c0.914,1.07,1.203,2.539,0.758,3.867
		l-7.383,22.141l25.647,38.373c1.227,1.828,0.734,4.312-1.102,5.547C200.266,511.765,199.493,511.984,198.727,511.984z"/>
	<path style="fill:#116FFF;" d="M234.789,511.984c-1.594,0-3.102-0.961-3.719-2.531l-62.803-160.019
		c-0.805-2.055,0.219-4.375,2.281-5.18c2.062-0.781,4.383,0.219,5.172,2.289l16.641,42.882l46.146,117.09
		c0.812,2.062-0.195,4.375-2.25,5.188C235.773,511.89,235.281,511.984,234.789,511.984z"/>
	<path style="fill:#116FFF;" d="M313.654,511.984c-0.758,0-1.523-0.211-2.203-0.656c-1.844-1.219-2.352-3.703-1.141-5.547
		l25.272-38.373l-7.39-22.156c-0.445-1.328-0.156-2.797,0.758-3.867l45.593-53.186l-37.382-37.382c-1.562-1.562-1.562-4.094,0-5.656
		s4.094-1.562,5.656,0l39.998,39.999c1.477,1.477,1.57,3.844,0.211,5.43l-46.529,54.279l7.289,21.852
		c0.383,1.164,0.219,2.437-0.453,3.468l-26.336,39.999C316.223,511.351,314.951,511.984,313.654,511.984z"/>
	<path style="fill:#116FFF;" d="M277.991,511.984c-0.484,0-0.969-0.086-1.445-0.266c-2.062-0.797-3.086-3.117-2.281-5.18
		l61.998-159.995c0.797-2.07,3.125-3.078,5.172-2.289c2.062,0.805,3.086,3.125,2.281,5.18l-61.998,159.995
		C281.108,511.015,279.593,511.984,277.991,511.984z"/>
	<path style="fill:#116FFF;" d="M195.994,391.988c-1.586,0-3.094-0.953-3.719-2.523c-0.812-2.055,0.188-4.383,2.242-5.195
		l60.396-23.999c2.039-0.812,4.374,0.18,5.194,2.242c0.812,2.054-0.188,4.382-2.242,5.194l-60.396,24
		C196.985,391.894,196.485,391.988,195.994,391.988z"/>
	<path style="fill:#116FFF;" d="M315.989,391.988c-0.499,0-1.007-0.094-1.491-0.289l-59.6-24c-2.055-0.82-3.047-3.156-2.219-5.202
		c0.82-2.055,3.18-3.031,5.202-2.219l59.6,23.999c2.055,0.82,3.047,3.156,2.219,5.203
		C319.075,391.043,317.575,391.988,315.989,391.988z"/>
</g>
<g>
</g>
<g>
</g>
<g>
</g>
<g>
</g>
<g>
</g>
<g>
</g>
<g>
</g>
<g>
</g>
<g>
</g>
<g>
</g>
<g>
</g>
<g>
</g>
<g>
</g>
<g>
</g>
<g>
</g>
</svg>
